<svg width="900" height="134" viewBox="0 0 900 134" fill="none" xmlns="http://www.w3.org/2000/svg">
<path d="M32.0976 66.5949C7.44943 66.5949 -1.89986 55.3958 4.14968 32.9975C9.99924 10.9992 25.2981 0 49.9462 0H109.142L101.242 29.5977H41.9968C37.0472 29.5977 34.2974 30.7477 33.6974 32.9975C32.9475 35.6473 35.0473 36.9972 39.9969 36.9972H62.1953C86.8434 36.9972 96.2427 47.9963 90.3931 69.9947C84.3936 92.393 69.0447 103.592 44.3966 103.592H0L7.8994 73.9944H52.296C57.2456 73.9944 60.0454 72.6445 60.7954 69.9947C61.3953 67.7448 59.1955 66.5949 54.2959 66.5949H32.0976Z" fill="#FCFF00"/>
<path d="M116.492 0.0498047H146.09L126.291 73.9942H163.288L155.389 103.592H88.7441L116.492 0.0498047Z" fill="#FCFF00"/>
<path d="M214.534 103.592C200.235 103.592 189.386 98.5426 181.986 88.4434C174.587 78.3441 172.837 66.1451 176.637 51.8462C180.436 37.5472 188.736 25.3482 201.585 15.2489C214.384 5.14971 227.983 0.100098 242.282 0.100098C256.581 0.100098 267.43 5.14971 274.829 15.2489C282.229 25.3482 284.028 37.5472 280.229 51.8462C276.379 66.1451 268.03 78.3441 255.231 88.4434C242.382 98.5426 228.833 103.592 214.534 103.592ZM239.832 67.495C245.331 63.1453 248.931 57.9457 250.581 51.7962C252.231 45.6966 251.431 40.447 248.231 36.0974C245.031 31.7477 240.382 29.5979 234.282 29.5979C228.183 29.5979 222.383 31.7477 216.884 36.0974C211.384 40.447 207.834 45.6466 206.184 51.7962C204.485 57.8957 205.284 63.1453 208.434 67.495C211.634 71.8446 216.284 73.9945 222.383 73.9945C228.533 73.9945 234.332 71.8446 239.832 67.495Z" fill="#FCFF00"/>
<path d="M352.674 29.6476L332.825 103.592L295.328 133.19L323.076 29.6476H293.479L301.378 0.0498047H390.121L382.272 29.6476H352.674Z" fill="#FCFF00"/>
<path d="M416.719 66.5949C392.071 66.5949 382.722 55.3958 388.772 32.9975C394.621 10.9992 409.92 0 434.568 0H493.764L485.864 29.5977H426.669C421.719 29.5977 418.969 30.7477 418.369 32.9975C417.619 35.6473 419.719 36.9972 424.669 36.9972H446.867C471.515 36.9972 480.915 47.9963 475.065 69.9947C469.065 92.393 453.717 103.592 429.068 103.592H384.672L392.571 73.9944H436.968C441.918 73.9944 444.717 72.6445 445.467 69.9947C446.067 67.7448 443.867 66.5949 438.968 66.5949H416.719Z" fill="#FCFF00"/>
<path d="M476.153 103.542L503.901 0H555.697C585.295 0 597.094 11.0992 591.145 33.3475C587.895 45.6465 581.345 51.7461 571.446 51.7461C581.295 51.7461 584.545 58.0456 581.145 70.6946C575.296 92.5929 557.547 103.542 527.949 103.542H476.153ZM515.65 66.5449L513.65 73.9444H543.248C548.198 73.9444 550.998 72.6945 551.698 70.2446C552.348 67.7948 550.198 66.5449 545.248 66.5449H515.65ZM525.6 29.5977L523.6 36.9972H553.197C558.147 36.9972 560.947 35.7473 561.647 33.2975C562.297 30.8477 560.147 29.5977 555.197 29.5977H525.6Z" fill="#FCFF00"/>
<path d="M610.894 88.7432L601.744 103.542H572.146L636.892 0H666.489L675.739 103.542H646.141L644.891 88.7432H610.894ZM643.191 59.1955L641.691 36.9972L628.392 59.1955H643.191Z" fill="#FCFF00"/>
<path d="M726.535 51.7964L712.636 103.592L675.139 133.19L710.786 0.050293H740.384L763.532 51.8463L777.381 0.050293H806.979L779.231 103.592H749.633L726.535 51.7964Z" fill="#FCFF00"/>
<path d="M786.63 103.542L814.378 0H866.174C895.772 0 905.921 17.2487 896.721 51.796C887.472 86.2934 868.024 103.592 838.426 103.592H786.63V103.542ZM836.026 29.5977L824.127 73.9944H846.325C856.175 73.9944 863.124 66.5949 867.124 51.796C871.073 36.9972 868.124 29.5977 858.224 29.5977H836.026Z" fill="#FCFF00"/>
</svg>
